HIERARCHY
ROOT Hips
{
  OFFSET -412.203 72.7424 995.934
  CHANNELS 6 Xposition Yposition Zposition Zrotation Xrotation Yrotation
  JOINT Spine
  {
    OFFSET 0 8 -2.93212e-05
    CHANNELS 6 Xposition Yposition Zposition Zrotation Xrotation Yrotation
    JOINT Spine1
    {
      OFFSET 5.14498e-05 8 -1.18456e-05
      CHANNELS 6 Xposition Yposition Zposition Zrotation Xrotation Yrotation
      JOINT Spine2
      {
        OFFSET -3.25876e-05 8 2.58251e-05
        CHANNELS 6 Xposition Yposition Zposition Zrotation Xrotation Yrotation
        JOINT Spine3
        {
          OFFSET 0 8 0
          CHANNELS 6 Xposition Yposition Zposition Zrotation Xrotation Yrotation
          JOINT Neck
          {
            OFFSET 0 17 4.70538e-05
            CHANNELS 6 Xposition Yposition Zposition Zrotation Xrotation Yrotation
            JOINT Head
            {
              OFFSET -1.69619e-05 10.8 -8.82354e-05
              CHANNELS 6 Xposition Yposition Zposition Zrotation Xrotation Yrotation
              End Site
              {
                OFFSET 0 20.25 0
              }
            }
          }
          JOINT LeftShoulder
          {
            OFFSET 4.99998 17 1.02499e-05
            CHANNELS 6 Xposition Yposition Zposition Zrotation Xrotation Yrotation
            JOINT LeftShoulder2
            {
              OFFSET 6.45 0 0
              CHANNELS 6 Xposition Yposition Zposition Zrotation Xrotation Yrotation
              JOINT LeftArm
              {
                OFFSET 6.45 0 1.55572e-05
                CHANNELS 6 Xposition Yposition Zposition Zrotation Xrotation Yrotation
                JOINT LeftForeArm
                {
                  OFFSET -3.11346e-05 -32.4 -2
                  CHANNELS 6 Xposition Yposition Zposition Zrotation Xrotation Yrotation
                  JOINT LeftHand
                  {
                    OFFSET 7.67672e-05 -25.65 2.00003
                    CHANNELS 6 Xposition Yposition Zposition Zrotation Xrotation Yrotation
                    JOINT LeftHandThumb1
                    {
                      OFFSET -0.499997 -1.49995 2.64994
                      CHANNELS 6 Xposition Yposition Zposition Zrotation Xrotation Yrotation
                      JOINT LeftHandThumb2
                      {
                        OFFSET -4.63468e-05 -3.79999 3.69995
                        CHANNELS 6 Xposition Yposition Zposition Zrotation Xrotation Yrotation
                        JOINT LeftHandThumb3
                        {
                          OFFSET -9.00997e-05 -2.99994 2.70004
                          CHANNELS 6 Xposition Yposition Zposition Zrotation Xrotation Yrotation
                          End Site
                          {
                            OFFSET 3.47806e-05 -2.29999 1.80001
                          }
                        }
                      }
                    }
                    JOINT LeftHandIndex
                    {
                      OFFSET -2.0982e-05 -1.90008 1.60002
                      CHANNELS 6 Xposition Yposition Zposition Zrotation Xrotation Yrotation
                      JOINT LeftHandIndex1
                      {
                        OFFSET 0 -8.3 1.89994
                        CHANNELS 6 Xposition Yposition Zposition Zrotation Xrotation Yrotation
                        JOINT LeftHandIndex2
                        {
                          OFFSET -2.25877e-05 -4.49998 -1.87505e-05
                          CHANNELS 6 Xposition Yposition Zposition Zrotation Xrotation Yrotation
                          JOINT LeftHandIndex3
                          {
                            OFFSET 1.91359e-05 -3.4 0
                            CHANNELS 6 Xposition Yposition Zposition Zrotation Xrotation Yrotation
                            End Site
                            {
                              OFFSET -3.21084e-05 -2.60006 4.36438e-05
                            }
                          }
                        }
                      }
                    }
                    JOINT LeftHandMiddle
                    {
                      OFFSET -0.250005 -2.19999 0.400046
                      CHANNELS 6 Xposition Yposition Zposition Zrotation Xrotation Yrotation
                      JOINT LeftHandMiddle1
                      {
                        OFFSET -3.84882e-05 -8.30004 0.999994
                        CHANNELS 6 Xposition Yposition Zposition Zrotation Xrotation Yrotation
                        JOINT LeftHandMiddle2
                        {
                          OFFSET 0 -4.64999 0
                          CHANNELS 6 Xposition Yposition Zposition Zrotation Xrotation Yrotation
                          JOINT LeftHandMiddle3
                          {
                            OFFSET -1.89357e-05 -3.30001 3.00468e-05
                            CHANNELS 6 Xposition Yposition Zposition Zrotation Xrotation Yrotation
                            End Site
                            {
                              OFFSET 0 -2.69996 0
                            }
                          }
                        }
                      }
                    }
                    JOINT LeftHandRing
                    {
                      OFFSET -0.500048 -2.14999 -0.80001
                      CHANNELS 6 Xposition Yposition Zposition Zrotation Xrotation Yrotation
                      JOINT LeftHandRing1
                      {
                        OFFSET 4.60838e-05 -7.75002 -0.200004
                        CHANNELS 6 Xposition Yposition Zposition Zrotation Xrotation Yrotation
                        JOINT LeftHandRing2
                        {
                          OFFSET 0 -3.79998 8.01764e-05
                          CHANNELS 6 Xposition Yposition Zposition Zrotation Xrotation Yrotation
                          JOINT LeftHandRing3
                          {
                            OFFSET 3.32143e-05 -3.39991 5.01351e-05
                            CHANNELS 6 Xposition Yposition Zposition Zrotation Xrotation Yrotation
                            End Site
                            {
                              OFFSET 1.85864e-05 -2.60004 -4.63853e-05
                            }
                          }
                        }
                      }
                    }
                    JOINT LeftHandPinky
                    {
                      OFFSET -0.749966 -1.75 -1.85
                      CHANNELS 6 Xposition Yposition Zposition Zrotation Xrotation Yrotation
                      JOINT LeftHandPinky1
                      {
                        OFFSET 3.45035e-05 -7.15003 -1.00001
                        CHANNELS 6 Xposition Yposition Zposition Zrotation Xrotation Yrotation
                        JOINT LeftHandPinky2
                        {
                          OFFSET -3.21533e-05 -2.99995 -6.84311e-05
                          CHANNELS 6 Xposition Yposition Zposition Zrotation Xrotation Yrotation
                          JOINT LeftHandPinky3
                          {
                            OFFSET -3.30434e-05 -2.35003 5.85547e-05
                            CHANNELS 6 Xposition Yposition Zposition Zrotation Xrotation Yrotation
                            End Site
                            {
                              OFFSET 1.36213e-05 -2.10006 2.38115e-05
                            }
                          }
                        }
                      }
                    }
                  }
                }
              }
            }
          }
          JOINT RightShoulder
          {
            OFFSET -5.00001 17 2.81745e-05
            CHANNELS 6 Xposition Yposition Zposition Zrotation Xrotation Yrotation
            JOINT RightShoulder2
            {
              OFFSET -6.45 0 0
              CHANNELS 6 Xposition Yposition Zposition Zrotation Xrotation Yrotation
              JOINT RightArm
              {
                OFFSET -6.44991 0 0
                CHANNELS 6 Xposition Yposition Zposition Zrotation Xrotation Yrotation
                JOINT RightForeArm
                {
                  OFFSET 0 -32.4 -2.00003
                  CHANNELS 6 Xposition Yposition Zposition Zrotation Xrotation Yrotation
                  JOINT RightHand
                  {
                    OFFSET 0 -25.6499 2.00008
                    CHANNELS 6 Xposition Yposition Zposition Zrotation Xrotation Yrotation
                    JOINT RightHandThumb1
                    {
                      OFFSET 0.499992 -1.50004 2.65004
                      CHANNELS 6 Xposition Yposition Zposition Zrotation Xrotation Yrotation
                      JOINT RightHandThumb2
                      {
                        OFFSET 0 -3.79999 3.70005
                        CHANNELS 6 Xposition Yposition Zposition Zrotation Xrotation Yrotation
                        JOINT RightHandThumb3
                        {
                          OFFSET 0 -3 2.7
                          CHANNELS 6 Xposition Yposition Zposition Zrotation Xrotation Yrotation
                          End Site
                          {
                            OFFSET -8.04717e-05 -2.30001 1.79998
                          }
                        }
                      }
                    }
                    JOINT RightHandIndex
                    {
                      OFFSET -1.17322e-05 -1.89996 1.6
                      CHANNELS 6 Xposition Yposition Zposition Zrotation Xrotation Yrotation
                      JOINT RightHandIndex1
                      {
                        OFFSET 4.12394e-05 -8.3 1.90003
                        CHANNELS 6 Xposition Yposition Zposition Zrotation Xrotation Yrotation
                        JOINT RightHandIndex2
                        {
                          OFFSET -4.76372e-05 -4.50003 1.87514e-05
                          CHANNELS 6 Xposition Yposition Zposition Zrotation Xrotation Yrotation
                          JOINT RightHandIndex3
                          {
                            OFFSET -1.71753e-05 -3.40001 -3.00731e-05
                            CHANNELS 6 Xposition Yposition Zposition Zrotation Xrotation Yrotation
                            End Site
                            {
                              OFFSET -3.02007e-05 -2.59999 7.4467e-05
                            }
                          }
                        }
                      }
                    }
                    JOINT RightHandMiddle
                    {
                      OFFSET 0.250065 -2.2 0.399966
                      CHANNELS 6 Xposition Yposition Zposition Zrotation Xrotation Yrotation
                      JOINT RightHandMiddle1
                      {
                        OFFSET 0 -8.30005 1.00008
                        CHANNELS 6 Xposition Yposition Zposition Zrotation Xrotation Yrotation
                        JOINT RightHandMiddle2
                        {
                          OFFSET 5.81098e-05 -4.64992 -6.03012e-05
                          CHANNELS 6 Xposition Yposition Zposition Zrotation Xrotation Yrotation
                          JOINT RightHandMiddle3
                          {
                            OFFSET -3.36218e-05 -3.29998 1.69903e-05
                            CHANNELS 6 Xposition Yposition Zposition Zrotation Xrotation Yrotation
                            End Site
                            {
                              OFFSET -4.76313e-05 -2.69996 -5.46112e-05
                            }
                          }
                        }
                      }
                    }
                    JOINT RightHandRing
                    {
                      OFFSET 0.499922 -2.14998 -0.800006
                      CHANNELS 6 Xposition Yposition Zposition Zrotation Xrotation Yrotation
                      JOINT RightHandRing1
                      {
                        OFFSET 0 -7.7499 -0.199973
                        CHANNELS 6 Xposition Yposition Zposition Zrotation Xrotation Yrotation
                        JOINT RightHandRing2
                        {
                          OFFSET 2.9721e-05 -3.80002 3.77074e-05
                          CHANNELS 6 Xposition Yposition Zposition Zrotation Xrotation Yrotation
                          JOINT RightHandRing3
                          {
                            OFFSET -2.63005e-05 -3.40004 -6.14483e-05
                            CHANNELS 6 Xposition Yposition Zposition Zrotation Xrotation Yrotation
                            End Site
                            {
                              OFFSET 2.27711e-05 -2.60005 0.000100748
                            }
                          }
                        }
                      }
                    }
                    JOINT RightHandPinky
                    {
                      OFFSET 0.749979 -1.74996 -1.85003
                      CHANNELS 6 Xposition Yposition Zposition Zrotation Xrotation Yrotation
                      JOINT RightHandPinky1
                      {
                        OFFSET 6.14799e-05 -7.15005 -1.00001
                        CHANNELS 6 Xposition Yposition Zposition Zrotation Xrotation Yrotation
                        JOINT RightHandPinky2
                        {
                          OFFSET 4.88408e-05 -3.00003 0.000101661
                          CHANNELS 6 Xposition Yposition Zposition Zrotation Xrotation Yrotation
                          JOINT RightHandPinky3
                          {
                            OFFSET 1.75206e-05 -2.34996 -7.01194e-05
                            CHANNELS 6 Xposition Yposition Zposition Zrotation Xrotation Yrotation
                            End Site
                            {
                              OFFSET 3.16279e-05 -2.09999 -1.45801e-05
                            }
                          }
                        }
                      }
                    }
                  }
                }
              }
            }
          }
        }
      }
    }
  }
  JOINT LeftUpLeg
  {
    OFFSET 7.99999 0 0
    CHANNELS 6 Xposition Yposition Zposition Zrotation Xrotation Yrotation
    JOINT LeftLeg
    {
      OFFSET 0 -45 -1.00003
      CHANNELS 6 Xposition Yposition Zposition Zrotation Xrotation Yrotation
      JOINT LeftFoot
      {
        OFFSET -6.67953e-05 -41 -1.99999
        CHANNELS 6 Xposition Yposition Zposition Zrotation Xrotation Yrotation
        JOINT LeftToeBase
        {
          OFFSET -2.74349e-05 -7.5 12.4999
          CHANNELS 6 Xposition Yposition Zposition Zrotation Xrotation Yrotation
          JOINT LeftFootToe
          {
            OFFSET 0 0 4
            CHANNELS 6 Xposition Yposition Zposition Zrotation Xrotation Yrotation
            End Site
            {
              OFFSET 0 0 0
            }
          }
        }
      }
    }
  }
  JOINT RightUpLeg
  {
    OFFSET -7.99999 0 0
    CHANNELS 6 Xposition Yposition Zposition Zrotation Xrotation Yrotation
    JOINT RightLeg
    {
      OFFSET -3.93404e-05 -45 -1.00008
      CHANNELS 6 Xposition Yposition Zposition Zrotation Xrotation Yrotation
      JOINT RightFoot
      {
        OFFSET -6.80785e-05 -41 -1.99991
        CHANNELS 6 Xposition Yposition Zposition Zrotation Xrotation Yrotation
        JOINT RightToeBase
        {
          OFFSET 4.38521e-05 -7.50002 12.4999
          CHANNELS 6 Xposition Yposition Zposition Zrotation Xrotation Yrotation
          JOINT RightFootToe
          {
            OFFSET 0 0 4
            CHANNELS 6 Xposition Yposition Zposition Zrotation Xrotation Yrotation
            End Site
            {
              OFFSET 0 0 0
            }
          }
        }
      }
    }
  }
}
MOTION
Frames:	3
Frame Time:	0.0111111
-407.954 74.004 988.508 -30.5868 2.59108 177.363 -5.68434e-14 8 1.13687e-13 4.14607 16.3084 -17.859 5.68434e-14 8 0 -1.07946 11.7978 0.317194 5.68434e-14 8 0 -0.529324 5.91541 0.118959 0 8 0 -0.527475 5.88348 0.130005 -5.68434e-14 17 0 -2.81332 -9.46816 1.15789 0 10.8 0 -6.51428 -22.3138 2.01465 5 17 0 -12.9438 -1.89072 18.3241 6.45 1.13687e-13 1.13687e-13 -2.94548 0.626718 0.903445 6.45 -1.13687e-13 -1.13687e-13 43.8455 -6.00444 44.9483 0 -32.4 -2 -92.1222 -67.046 -95.5415 -2.84217e-14 -25.65 2 -36.1751 -29.8964 -33.7461 -0.5 -1.5 2.65 72.8229 6.24227 -63.2858 0 -3.8 3.7 -0.453882 18.5854 0.186283 0 -3 2.7 -0.0385471 -0.873596 0.0826852 0 -1.9 1.6 -2.98188e-06 1.37133e-05 1.48257e-05 0 -8.3 1.9 -85.8417 6.59416 9.82153 0 -4.5 8.52651e-14 -2.18436 0.109416 0.219378 0 -3.4 -2.84217e-14 -0.000386268 0.111946 0.20396 -0.25 -2.2 0.4 -2.98188e-06 1.37133e-05 1.48257e-05 0 -8.3 1 -62.6673 22.7552 17.4523 0 -4.65 0 -93.3222 1.55393e-05 -0.000270729 7.10543e-15 -3.3 0 -3.05176e-05 4.58839e-05 2.204e-05 -0.5 -2.15 -0.8 -2.98188e-06 1.37133e-05 1.48257e-05 5.68434e-14 -7.75 -0.2 -78.6434 6.29536 11.9221 0 -3.8 0 -85.9709 0.00895181 0.0277015 5.68434e-14 -3.4 0 -74.4326 -0.0559391 0.0381857 -0.75 -1.75 -1.85 -2.98188e-06 1.37133e-05 1.48257e-05 -5.68434e-14 -7.15 -1 -73.1542 15.5277 19.3924 0 -3 0 -85.1159 0.0108845 0.00772067 -2.84217e-14 -2.35 0 -54.8357 0.00240008 0.0173025 -5 17 0 -4.71426 -0.557393 5.24343 -6.45 0 1.13687e-13 -3.4109 1.365 -0.0215467 -6.45 1.13687e-13 0 -5.75007 -60.9882 6.69569 0 -32.4 -2 -65.7251 -62.4996 -84.2477 -5.68434e-14 -25.65 2 -3.83232 14.354 -19.3941 0.5 -1.5 2.65 -76.0847 -28.0871 -39.7538 -1.13687e-13 -3.8 3.7 0.286216 20.0003 0.050548 0 -3 2.7 0.0868575 57.2482 -0.338872 2.84217e-14 -1.9 1.6 -5.44836e-05 2.70974e-05 -3.07464e-05 -2.84217e-14 -8.3 1.9 12.1521 -25.4347 2.31466 0 -4.5 0 3.03183 -0.0101671 0.148032 -2.84217e-14 -3.4 -5.68434e-14 1.02488 -0.0148415 0.146058 0.25 -2.2 0.4 -5.44836e-05 2.70974e-05 -3.07464e-05 0 -8.3 1 12.761 -22.8757 2.00709 0 -4.65 0 1.81936 -0.0862498 0.0450837 -4.26326e-14 -3.3 0 0.205592 -0.0813202 0.0494458 0.5 -2.15 -0.8 -5.44836e-05 2.70974e-05 -3.07464e-05 0 -7.75 -0.2 10.0864 -21.0556 1.01953 2.84217e-14 -3.8 -2.84217e-14 0.0230785 -0.16064 0.000117072 2.84217e-14 -3.4 2.84217e-14 -0.000143893 -0.168061 -0.0687201 0.75 -1.75 -1.85 -5.44836e-05 2.70974e-05 -3.07464e-05 -2.84217e-14 -7.15 -1 7.74637 -19.9962 0.33064 -2.84217e-14 -3 -5.68434e-14 -0.00226003 -9.40396e-05 0.000105178 0 -2.35 0 4.34951e-05 -0.000132821 -0.000124161 8 -1.42109e-14 1.13687e-13 -1.84074 -43.5202 -9.80622 -5.68434e-14 -45 -1 -4.70232 69.2027 -2.40357 0 -41 -2 -37.9537 -5.00133 9.87957 0 -7.5 12.5 1.60281e-06 -22.6593 -6.89119e-06 0 8.88178e-16 4 9.06867 22.1984 32.1784 -8 -1.42109e-14 1.13687e-13 11.8608 -60.5102 34.9505 1.13687e-13 -45 -1 -51.0491 83.1796 63.3014 0 -41 -2 -12.4248 2.57115 20.2171 0 -7.5 12.5 8.26796e-06 -11.2614 -3.78138e-05 0 -1.42109e-14 4 9.88969 12.4933 -4.98347 
-407.973 74.014 988.502 -30.5056 2.62728 177.337 0 8 0 4.05505 16.2711 -17.8511 0 8 0 -1.0831 11.7573 0.312531 0 8 0 -0.530368 5.89499 0.118571 5.68434e-14 8 2.27374e-13 -0.528175 5.8643 0.126879 0 17 0 -2.83733 -9.40563 1.13419 -5.68434e-14 10.8 0 -6.57881 -22.1655 1.95491 5 17 0 -12.9159 -1.95091 18.3429 6.45 0 0 -2.92176 0.630483 0.9379 6.45 0 0 43.8039 -5.5823 44.4809 0 -32.4 -2 -92.4197 -67.1406 -96.5572 5.68434e-14 -25.65 2 -35.1857 -32.4176 -32.9627 -0.5 -1.5 2.65 70.8489 6.15571 -61.6258 1.13687e-13 -3.8 3.7 -0.43696 18.82 0.18755 -5.68434e-14 -3 2.7 -0.0382107 -0.873597 0.0826561 5.68434e-14 -1.9 1.6 -2.98188e-06 1.37133e-05 1.48257e-05 0 -8.3 1.9 -86.2933 5.9131 9.3266 -1.13687e-13 -4.5 0 -2.18407 0.109903 0.220351 -1.13687e-13 -3.4 2.84217e-14 -0.000389788 0.112435 0.204867 -0.25 -2.2 0.4 -2.98188e-06 1.37133e-05 1.48257e-05 0 -8.3 1 -63.8278 22.8229 17.9825 0 -4.65 5.68434e-14 -93.3222 1.18976e-05 -0.000201968 2.84217e-14 -3.3 0 -3.05176e-05 4.72604e-05 2.26373e-05 -0.5 -2.15 -0.8 -2.98188e-06 1.37133e-05 1.48257e-05 5.68434e-14 -7.75 -0.2 -78.9541 6.65939 12.3683 0 -3.8 1.13687e-13 -86.7501 0.010166 0.0364218 -2.84217e-14 -3.4 0 -76.3976 -0.0789605 0.0458589 -0.75 -1.75 -1.85 -2.98188e-06 1.37133e-05 1.48257e-05 -5.68434e-14 -7.15 -1 -74.5939 15.499 20.1747 0 -3 5.68434e-14 -85.5662 0.0143634 0.0104724 0 -2.35 0 -55.4098 0.0030575 0.0231003 -5 17 0 -4.65696 -0.620186 5.27158 -6.45 -1.13687e-13 -1.13687e-13 -3.41026 1.35396 0.00200369 -6.45 0 -1.13687e-13 -5.34341 -60.6207 7.26366 0 -32.4 -2 -66.2189 -62.4324 -84.7421 5.68434e-14 -25.65 2 -4.73104 14.4755 -19.1626 0.5 -1.5 2.65 -75.4757 -27.985 -39.0029 1.13687e-13 -3.8 3.7 0.280045 20.128 0.0504963 0 -3 2.7 0.0871426 57.2482 -0.336887 5.68434e-14 -1.9 1.6 -5.44836e-05 2.70974e-05 -3.07464e-05 -8.52651e-14 -8.3 1.9 12.1051 -25.4001 2.29846 2.84217e-14 -4.5 5.68434e-14 2.56997 -0.00373225 0.147708 -2.84217e-14 -3.4 5.68434e-14 0.584482 -0.00862372 0.145747 0.25 -2.2 0.4 -5.44836e-05 2.70974e-05 -3.07464e-05 -8.52651e-14 -8.3 1 13.1153 -22.8655 2.06698 5.68434e-14 -4.65 -5.68434e-14 1.69845 -0.0859032 0.045023 -5.68434e-14 -3.3 5.68434e-14 0.0877418 -0.0809897 0.0492422 0.5 -2.15 -0.8 -5.44836e-05 2.70974e-05 -3.07464e-05 2.84217e-14 -7.75 -0.2 10.5474 -21.1835 1.09697 0 -3.8 8.52651e-14 0.0230789 -0.160785 0.000116582 -5.68434e-14 -3.4 0 -0.000140428 -0.167982 -0.0674621 0.75 -1.75 -1.85 -5.44836e-05 2.70974e-05 -3.07464e-05 0 -7.15 -1 8.16575 -20.1181 0.395071 0 -3 -2.84217e-14 -0.00226212 -9.36086e-05 0.000103815 -5.68434e-14 -2.35 -2.84217e-14 4.35045e-05 -0.000132328 -0.000123722 8 -1.42109e-14 0 -1.81095 -43.4924 -9.90176 -2.84217e-14 -45 -1 -4.7914 69.2381 -2.32821 0 -41 -2 -37.9725 -5.03408 9.92693 0 -7.5 12.5 1.59819e-06 -22.6947 -6.89297e-06 0 -8.88178e-16 4 9.04767 22.2372 32.21 -8 -4.26326e-14 0 11.8848 -60.4662 34.8931 0 -45 -1 -50.8662 83.156 63.1221 -1.13687e-13 -41 -2 -12.4298 2.58769 20.2146 1.13687e-13 -7.5 12.5 8.21812e-06 -11.3354 -3.78235e-05 0 -1.42109e-14 4 9.86795 12.5746 -4.9345 
-407.989 74.0218 988.499 -30.4284 2.67002 177.309 0 8 0 3.96439 16.2293 -17.8402 0 8 -1.13687e-13 -1.0855 11.7149 0.30685 -5.68434e-14 8 0 -0.530603 5.87362 0.118145 0 8 1.13687e-13 -0.528602 5.84357 0.124 0 17 0 -2.86323 -9.33818 1.11079 -5.68434e-14 10.8 0 -6.64753 -22.0056 1.89589 5 17 0 -12.8879 -1.99653 18.372 6.45 0 0 -2.89251 0.64089 0.983299 6.45 0 0 43.7348 -5.1818 44.0702 -5.68434e-14 -32.4 -2 -92.6773 -67.1988 -97.5353 0 -25.65 2 -34.1967 -34.8489 -32.1492 -0.5 -1.5 2.65 68.899 6.14228 -59.9879 0 -3.8 3.7 -0.419366 18.9991 0.188784 -2.84217e-14 -3 2.7 -0.0378675 -0.873598 0.0826273 -5.68434e-14 -1.9 1.6 -2.98188e-06 1.37133e-05 1.48257e-05 -5.68434e-14 -8.3 1.9 -86.6325 5.37963 8.94196 0 -4.5 -5.68434e-14 -2.18377 0.110391 0.221323 0 -3.4 5.68434e-14 -0.000393322 0.112923 0.205774 -0.25 -2.2 0.4 -2.98188e-06 1.37133e-05 1.48257e-05 0 -8.3 1 -64.8597 22.8769 18.4675 0 -4.65 0 -93.3222 9.12105e-06 -0.000138696 1.42109e-14 -3.3 -5.68434e-14 -3.05176e-05 4.77656e-05 2.36098e-05 -0.5 -2.15 -0.8 -2.98188e-06 1.37133e-05 1.48257e-05 -5.68434e-14 -7.75 -0.2 -79.0804 7.09129 12.8087 0 -3.8 0 -87.664 0.0102066 0.0408176 -2.84217e-14 -3.4 1.13687e-13 -78.7101 -0.0934459 0.0476192 -0.75 -1.75 -1.85 -2.98188e-06 1.37133e-05 1.48257e-05 -5.68434e-14 -7.15 -1 -75.9293 15.454 20.927 0 -3 -5.68434e-14 -85.7678 0.0179794 0.0147484 0 -2.35 -5.68434e-14 -55.7281 0.0033215 0.0294478 -5 17 0 -4.60456 -0.668531 5.3274 -6.45 0 0 -3.40948 1.34244 0.0203477 -6.45 0 0 -4.96254 -60.2435 7.76126 0 -32.4 -2 -66.6635 -62.3581 -85.2067 5.68434e-14 -25.65 2 -5.55868 14.5791 -18.9485 0.5 -1.5 2.65 -74.9141 -27.9712 -38.2811 -1.13687e-13 -3.8 3.7 0.273243 20.3212 0.0504652 0 -3 2.7 0.0874115 57.2482 -0.334874 5.68434e-14 -1.9 1.6 -5.44836e-05 2.70974e-05 -3.07464e-05 0 -8.3 1.9 12.0227 -25.3386 2.27336 -2.84217e-14 -4.5 -5.68434e-14 2.21777 0.00235584 0.147375 -5.68434e-14 -3.4 5.68434e-14 0.245519 -0.00274925 0.145427 0.25 -2.2 0.4 -5.44836e-05 2.70974e-05 -3.07464e-05 -2.84217e-14 -8.3 1 13.4451 -22.8372 2.12101 2.84217e-14 -4.65 0 1.63424 -0.085546 0.0449612 0 -3.3 0 0.0245442 -0.0806586 0.0490361 0.5 -2.15 -0.8 -5.44836e-05 2.70974e-05 -3.07464e-05 0 -7.75 -0.2 11.0062 -21.3036 1.17454 -2.84217e-14 -3.8 5.68434e-14 0.0230793 -0.160912 0.000116094 0 -3.4 0 -0.000136998 -0.167891 -0.0662144 0.75 -1.75 -1.85 -5.44836e-05 2.70974e-05 -3.07464e-05 0 -7.15 -1 8.60986 -20.2323 0.464665 0 -3 2.84217e-14 -0.00226352 -9.31597e-05 0.000102454 0 -2.35 -2.84217e-14 4.35073e-05 -0.000131816 -0.000123275 8 1.42109e-14 0 -1.78802 -43.4585 -10.0086 0 -45 -1 -4.87707 69.2703 -2.26042 0 -41 -2 -37.9954 -5.0688 9.97499 1.13687e-13 -7.5 12.5 1.59303e-06 -22.7342 -6.89496e-06 0 1.33227e-15 4 9.03604 22.2827 32.2354 -8 4.26326e-14 0 11.9184 -60.4175 34.8482 0 -45 -1 -50.6893 83.1322 62.9492 1.13687e-13 -41 -2 -12.4292 2.60976 20.2139 0 -7.5 12.5 8.17284e-06 -11.4026 -3.78325e-05 1.13687e-13 -1.42109e-14 4 9.84223 12.65 -4.88731 
